# xmcd CD database file
#
# Track frame offsets:
#	182
#	31747
#	47340
#	72840
#	96330
#	119602
#
# Disc length: 2117 seconds
#
# Revision: 0
# Processed by: cddbd v1.4PL0 Copyright (c) Steve Scherf et al.
# Submitted via: CDex 1.51
#
DISCID=48084306
DTITLE=Scott Hill - Narrow Streets
DYEAR=2002
DGENRE=Jazz
TTITLE0=Nervous Conversations
TTITLE1=Question and Answer
TTITLE2=You Think Too Much
TTITLE3=101 Names
TTITLE4=Albuterol
TTITLE5=Sorry Leaving
EXTD=YEAR: 2002
EXTT0=
EXTT1=
EXTT2=
EXTT3=
EXTT4=
EXTT5=
PLAYORDER=
